<?xml version="1.0" encoding="utf-8"?>
<!-- Generator: Adobe Illustrator 16.0.3, SVG Export Plug-In . SVG Version: 6.00 Build 0)  -->
<!DOCTYPE svg PUBLIC "-//W3C//DTD SVG 1.1//EN" "http://www.w3.org/Graphics/SVG/1.1/DTD/svg11.dtd">
<svg version="1.1" id="Ebene_1" xmlns="http://www.w3.org/2000/svg" xmlns:xlink="http://www.w3.org/1999/xlink" x="0px" y="0px"
	 width="141.732px" height="39.685px" viewBox="0 0 141.732 39.685" enable-background="new 0 0 141.732 39.685"
	 xml:space="preserve">
<g>
	<path fill="#00A6E6" d="M92.498,34.115v-5.699c0-2.219-0.605-3.313-2.303-3.313c-0.758,0-1.361,0.34-1.717,0.793v-0.605h-1.613
		v8.824h1.613v-6.672c0.32-0.523,0.809-0.809,1.313-0.809c0.807,0,1.094,0.59,1.094,2.051v5.43H92.498z M83.604,28.853h-2.973
		c0.133-1.512,0.652-2.234,1.477-2.234C83.016,26.619,83.553,27.544,83.604,28.853 M85.252,29.677c0-3.078-1.344-4.574-3.109-4.574
		c-1.867,0-3.145,1.547-3.145,4.641c0,2.773,1.145,4.559,3.246,4.559c1.125,0,2.016-0.504,2.621-1.18l-0.992-1.023
		c-0.504,0.469-0.857,0.652-1.598,0.652c-0.939,0-1.563-0.754-1.664-2.504h4.625C85.252,30.08,85.252,29.83,85.252,29.677
		 M75.77,31.982c-0.287,0.469-0.771,0.805-1.311,0.805c-0.926,0-1.361-0.957-1.361-3.262c0-2.082,0.436-2.906,1.275-2.906
		c0.508,0,1.045,0.25,1.396,0.789V31.982z M77.385,34.115V21.86l-1.615,0.841v3.059c-0.436-0.453-0.908-0.656-1.529-0.656
		c-1.748,0-2.775,1.563-2.775,4.508c0,3.512,1.061,4.691,2.658,4.691c0.789,0,1.227-0.32,1.646-0.773v0.586H77.385z M70.273,31.697
		c0-1.449-0.756-2.02-2.084-2.793c-1.193-0.688-1.445-0.957-1.445-1.496c0-0.438,0.27-0.773,0.873-0.773
		c0.557,0,1.211,0.254,1.781,0.656l0.656-1.363c-0.656-0.504-1.514-0.824-2.404-0.824c-1.598,0-2.521,0.926-2.521,2.457
		c0,1.395,0.74,1.965,1.832,2.605c1.229,0.707,1.699,1.027,1.699,1.648c0,0.57-0.438,0.957-1.16,0.957
		c-0.588,0-1.244-0.254-2.051-0.758l-0.621,1.348c0.771,0.57,1.764,0.941,2.705,0.941C69.25,34.302,70.273,33.376,70.273,31.697
		 M62.172,28.853h-2.975c0.135-1.512,0.654-2.234,1.479-2.234C61.584,26.619,62.121,27.544,62.172,28.853 M63.818,29.677
		c0-3.078-1.344-4.574-3.109-4.574c-1.865,0-3.145,1.547-3.145,4.641c0,2.773,1.145,4.559,3.246,4.559
		c1.127,0,2.018-0.504,2.623-1.18l-0.992-1.023c-0.504,0.469-0.857,0.652-1.598,0.652c-0.941,0-1.563-0.754-1.664-2.504h4.623
		C63.818,30.08,63.818,29.83,63.818,29.677 M56.943,25.408c-0.268-0.168-0.656-0.305-1.211-0.305c-0.654,0-1.209,0.34-1.563,0.793
		v-0.605h-1.615v8.824h1.615v-6.672c0.369-0.539,0.807-0.691,1.262-0.691c0.504,0,0.807,0.086,1.125,0.27L56.943,25.408z
		 M49.143,28.181c0,2.066-0.453,4.32-2.033,4.32h-1.211v-8.539h1.16C48.705,23.962,49.143,26.115,49.143,28.181 M50.842,28.181
		c0-3.496-1.127-5.835-3.732-5.835h-2.857v11.769h2.857C49.598,34.115,50.842,31.677,50.842,28.181"/>
	<path fill="#86BC25" d="M92.953,19.706l-2.152-5.768l1.898-3.061h-1.832l-1.328,2.404c-0.217,0.404-0.553,1.01-0.721,1.363
		c0.016-0.438,0.031-1.346,0.031-1.9V7.448L87.236,8.29v11.416h1.613v-2.723l0.875-1.396l1.463,4.119H92.953z M85.975,10.997
		c-0.27-0.168-0.656-0.303-1.209-0.303c-0.656,0-1.209,0.336-1.564,0.791v-0.607h-1.613v8.828h1.613V13.03
		c0.371-0.537,0.805-0.688,1.26-0.688c0.506,0,0.809,0.084,1.127,0.268L85.975,10.997z M78.326,14.442H75.35
		c0.137-1.512,0.656-2.236,1.48-2.236C77.736,12.206,78.275,13.131,78.326,14.442 M79.975,15.266c0-3.076-1.346-4.572-3.111-4.572
		c-1.865,0-3.145,1.547-3.145,4.641c0,2.773,1.145,4.557,3.244,4.557c1.129,0,2.02-0.506,2.625-1.178l-0.992-1.025
		c-0.504,0.471-0.859,0.656-1.598,0.656c-0.941,0-1.564-0.758-1.664-2.506h4.623C79.975,15.67,79.975,15.418,79.975,15.266
		 M72.861,10.877h-1.547l-0.621,3.768c-0.084,0.504-0.32,2.15-0.371,2.57c-0.068-0.436-0.387-2.1-0.504-2.605l-0.842-3.732h-1.461
		l-0.809,3.732c-0.117,0.506-0.42,2.17-0.486,2.605c-0.053-0.42-0.305-2.049-0.389-2.57l-0.656-3.768h-1.545l1.781,8.828h1.514
		l0.891-4.203c0.119-0.588,0.336-1.799,0.404-2.221c0.068,0.422,0.285,1.615,0.404,2.17l0.908,4.254h1.512L72.861,10.877z
		 M62.521,19.706v-5.699c0-2.221-0.607-3.313-2.305-3.313c-0.756,0-1.361,0.336-1.715,0.791v-0.607h-1.613v8.828h1.613V13.03
		c0.32-0.52,0.807-0.807,1.313-0.807c0.807,0,1.092,0.59,1.092,2.051v5.432H62.521z M53.627,14.442H50.65
		c0.137-1.512,0.656-2.236,1.48-2.236C53.039,12.206,53.576,13.131,53.627,14.442 M55.275,15.266c0-3.076-1.346-4.572-3.111-4.572
		c-1.865,0-3.143,1.547-3.143,4.641c0,2.773,1.141,4.557,3.244,4.557c1.125,0,2.018-0.506,2.623-1.178l-0.992-1.025
		c-0.506,0.471-0.857,0.656-1.598,0.656c-0.941,0-1.564-0.758-1.664-2.506h4.623C55.275,15.67,55.275,15.418,55.275,15.266
		 M47.859,17.991c-0.234,0.201-0.623,0.369-1.043,0.369c-0.436,0-0.672-0.252-0.672-0.873v-5.094h1.697v-1.516h-1.697v-3.43
		l-1.613,0.857v2.572h-0.959v1.516h0.959v5.244c0,1.43,0.521,2.254,1.697,2.254c0.605,0,1.061-0.152,1.445-0.404L47.859,17.991z
		 M42.311,19.706v-5.699c0-2.221-0.604-3.313-2.303-3.313c-0.756,0-1.361,0.336-1.715,0.791v-0.607H36.68v8.828h1.613V13.03
		c0.32-0.52,0.809-0.807,1.313-0.807c0.807,0,1.092,0.59,1.092,2.051v5.432H42.311z M33.418,14.442h-2.975
		c0.133-1.512,0.656-2.236,1.477-2.236C32.828,12.206,33.367,13.131,33.418,14.442 M35.064,15.266c0-3.076-1.344-4.572-3.109-4.572
		c-1.867,0-3.145,1.547-3.145,4.641c0,2.773,1.145,4.557,3.246,4.557c1.127,0,2.016-0.506,2.623-1.178l-0.992-1.025
		c-0.504,0.471-0.859,0.656-1.598,0.656c-0.941,0-1.563-0.758-1.666-2.506h4.625C35.064,15.67,35.064,15.418,35.064,15.266
		 M25.582,17.571c-0.285,0.469-0.771,0.805-1.309,0.805c-0.926,0-1.363-0.957-1.363-3.26c0-2.086,0.438-2.91,1.279-2.91
		c0.504,0,1.041,0.252,1.393,0.791V17.571z M27.197,19.706V7.448L25.582,8.29v3.061c-0.436-0.453-0.908-0.656-1.529-0.656
		c-1.748,0-2.773,1.564-2.773,4.506c0,3.514,1.059,4.691,2.658,4.691c0.789,0,1.225-0.32,1.645-0.775v0.59H27.197z M19.664,19.706
		v-8.828h-1.613v6.676c-0.318,0.521-0.807,0.807-1.311,0.807c-0.807,0-1.094-0.588-1.094-2.051v-5.432h-1.613v5.701
		c0,2.219,0.605,3.313,2.303,3.313c0.756,0,1.363-0.338,1.715-0.791v0.605H19.664z M12.484,17.991
		c-0.236,0.201-0.621,0.369-1.041,0.369c-0.439,0-0.672-0.252-0.672-0.873v-5.094h1.697v-1.516h-1.697v-3.43L9.156,8.305v2.572
		H8.199v1.516h0.957v5.244c0,1.43,0.52,2.254,1.699,2.254c0.604,0,1.057-0.152,1.445-0.404L12.484,17.991z M7.34,16.663
		c0-1.967-1.159-2.875-2.622-3.816c-1.312-0.84-1.716-1.328-1.716-2.201c0-0.74,0.438-1.244,1.229-1.244
		c0.739,0,1.126,0.268,1.698,1.023l1.21-1.076C6.433,8.325,5.643,7.752,4.281,7.752c-1.832,0-2.976,1.227-2.976,2.941
		c0,1.85,1.042,2.707,2.369,3.58c1.582,1.045,1.969,1.564,1.969,2.473c0,0.957-0.522,1.496-1.412,1.496
		c-0.725,0-1.278-0.303-1.916-1.311l-1.296,1.041c0.674,1.143,1.632,1.918,3.109,1.918C6.214,19.891,7.34,18.543,7.34,16.663"/>
	<path fill="#86BC25" d="M122.197,38.189c9.949,0,18.016-8.066,18.016-18.017c0-9.949-8.066-18.016-18.016-18.016
		c-9.951,0-18.016,8.066-18.016,18.016C104.182,30.123,112.246,38.189,122.197,38.189"/>
	<path fill="#FFFFFF" d="M127.998,37.798c0.555-0.293,2.836-3.863,1.086-7.027c-1.295-2.344-5.527-3.766-10.859-6.527
		c-5.234-2.614-10.441-7.079-11.227-11.882c-1.25-4.834,7.611-9.705,7.611-9.705c-0.494,0.41-0.752,2.008-0.201,5.355
		c2.047,9.693,25.699,10.658,23.881,20.665c-0.537,5.824-8.213,8.203-8.213,8.203"/>
	<path fill="#00A6E6" d="M130.479,36.115c0.555-0.293,3.1-3.723,1.352-6.887c-1.297-2.34-7.117-4.906-12.449-7.669
		c-5.035-2.611-8.934-5.691-9.721-10.492c-0.533-3.25,2.496-5.537,2.496-5.537c-0.494,0.41-0.861,1.186-0.73,2.959
		c0.729,9.938,24.436,11.834,24.465,20.005C135.908,32.822,130.479,36.115,130.479,36.115"/>
</g>
</svg>
